<?xml version="1.0" standalone="no"?><!DOCTYPE svg PUBLIC "-//W3C//DTD SVG 1.1//EN" "http://www.w3.org/Graphics/SVG/1.1/DTD/svg11.dtd"><svg t="1587058611540" class="icon" viewBox="0 0 1024 1024" version="1.1" xmlns="http://www.w3.org/2000/svg" p-id="1013" xmlns:xlink="http://www.w3.org/1999/xlink" width="200" height="200"><defs><style type="text/css"></style></defs><path d="M753.92 170.666667a64 64 0 0 1 58.837333 38.826666l115.541334 269.610667a128 128 0 0 1 3.925333 10.24 42.709333 42.709333 0 0 1 5.973333 28.970667c0.298667 3.712 0.469333 7.466667 0.469334 11.221333V789.333333a64 64 0 0 1-64 64h-725.333334A64 64 0 0 1 85.333333 789.333333v-259.84a128 128 0 0 1 0.512-11.221333 12.373333 12.373333 0 0 1-0.213333-1.28L85.333333 512c0-8.277333 2.346667-16.042667 6.442667-22.613333 1.152-3.498667 2.474667-6.912 3.925333-10.282667l115.541334-269.653333A64 64 0 0 1 270.08 170.666667zM170.666667 768h682.666666v-213.333333h-164.821333l-3.370667 6.314666c-35.413333 62.72-91.093333 97.152-162.773333 100.138667L512 661.333333c-76.714667 0-136.021333-34.645333-173.141333-100.352L335.445333 554.666667H170.666667v213.333333zM739.84 256H284.117333l-91.434666 213.333333h155.946666a64 64 0 0 1 58.069334 37.12c22.229333 47.914667 55.253333 69.546667 105.301333 69.546667s83.072-21.632 105.301333-69.589333a64 64 0 0 1 51.882667-36.778667L675.413333 469.333333h155.904L739.84 256z" p-id="1014"></path></svg>