<?xml version="1.0" standalone="no"?><!DOCTYPE svg PUBLIC "-//W3C//DTD SVG 1.1//EN" "http://www.w3.org/Graphics/SVG/1.1/DTD/svg11.dtd"><svg t="1588859909184" class="icon" viewBox="0 0 1024 1024" version="1.1" xmlns="http://www.w3.org/2000/svg" p-id="1702" xmlns:xlink="http://www.w3.org/1999/xlink" width="200" height="200"><defs><style type="text/css"></style></defs><path d="M341.333333 443.733333h119.466667v88.407467l-71.684267 14.336A17.0752 17.0752 0 0 0 375.466667 563.2v34.133333a17.066667 17.066667 0 0 0 17.066666 17.066667h238.933334a17.066667 17.066667 0 0 0 17.066666-17.066667v-34.133333c0-8.106667-5.7088-15.099733-13.649066-16.725333L563.2 532.1408V443.733333h119.466667a17.066667 17.066667 0 0 0 17.066666-17.066666v-34.133334a17.077333 17.077333 0 0 0-12.917333-16.558933L563.2 345.0752V290.133333c0-28.2752-22.9248-51.2-51.2-51.2s-51.2 22.9248-51.2 51.2v54.941867l-123.616 30.8992A17.077333 17.077333 0 0 0 324.266667 392.533333v34.133334a17.066667 17.066667 0 0 0 17.066666 17.066666z m68.266667 133.4592l56.832-11.368533 4.810667 14.442667H409.6zM614.4 580.266667h-61.642667l4.808534-14.442667L614.4 577.194667z m51.2-174.408534V409.6h-102.4v-29.341867zM494.933333 290.133333a17.066667 17.066667 0 0 1 34.133334 0v253.216L516.757333 580.266667h-9.514666L494.933333 543.349333z m-136.533333 115.7248l102.4-25.6V409.6H358.4z m0 0" p-id="1703"></path><path d="M682.666667 0H341.333333C275.383467 0.074667 221.941333 53.5168 221.866667 119.466667v785.066666c0.074667 65.949867 53.5168 119.392 119.466666 119.466667h341.333334c65.949867-0.074667 119.392-53.5168 119.466666-119.466667V119.466667c-0.074667-65.949867-53.5168-119.392-119.466666-119.466667zM341.333333 34.133333h341.333334c47.108267 0.0576 85.275733 38.225067 85.333333 85.333334v17.066666H256v-17.066666c0.0576-47.108267 38.225067-85.275733 85.333333-85.333334z m426.666667 136.533334v682.666666H256V170.666667z m-85.333333 819.2H341.333333c-47.108267-0.0576-85.275733-38.225067-85.333333-85.333334v-17.066666h512v17.066666c-0.0576 47.108267-38.225067 85.275733-85.333333 85.333334z m0 0" p-id="1704"></path><path d="M477.866667 921.6h68.266666v34.133333h-68.266666z m0 0M324.266667 68.266667h34.133333v34.133333H324.266667z m0 0M392.533333 68.266667h102.4v34.133333H392.533333z m0 0M494.933333 648.533333h34.133334v68.266667h-34.133334z m0 0M494.933333 750.933333h34.133334v34.133334h-34.133334z m0 0M699.733333 477.866667h34.133334v102.4h-34.133334z m0 0M699.733333 614.4h34.133334v34.133333h-34.133334z m0 0M597.333333 648.533333h34.133334v34.133334h-34.133334z m0 0M597.333333 716.8h34.133334v34.133333h-34.133334z m0 0M290.133333 477.866667h34.133334v102.4H290.133333z m0 0M290.133333 614.4h34.133334v34.133333H290.133333z m0 0M392.533333 648.533333h34.133334v34.133334H392.533333z m0 0M392.533333 716.8h34.133334v34.133333H392.533333z m0 0" p-id="1705"></path></svg>