<?xml version="1.0" standalone="no"?><!DOCTYPE svg PUBLIC "-//W3C//DTD SVG 1.1//EN" "http://www.w3.org/Graphics/SVG/1.1/DTD/svg11.dtd"><svg t="1587058229802" class="icon" viewBox="0 0 1024 1024" version="1.1" xmlns="http://www.w3.org/2000/svg" p-id="810" xmlns:xlink="http://www.w3.org/1999/xlink" width="200" height="200"><defs><style type="text/css"></style></defs><path d="M870.4 593.066667c-38.4-4.266667-76.8-12.8-110.933333-25.6-46.933333-17.066667-98.133333-4.266667-136.533334 29.866666l-29.866666 29.866667C516.266667 576 448 512 396.8 430.933333l29.866667-29.866666c34.133333-34.133333 46.933333-89.6 29.866666-136.533334-12.8-34.133333-21.333333-72.533333-25.6-110.933333-8.533333-64-64-110.933333-128-110.933333H162.133333c-34.133333 4.266667-64 21.333333-85.333333 46.933333S46.933333 149.333333 46.933333 183.466667c12.8 136.533333 64 273.066667 136.533334 388.266666 68.266667 106.666667 162.133333 200.533333 268.8 268.8C567.466667 917.333333 704 964.266667 840.533333 977.066667h12.8c34.133333 0 68.266667-12.8 89.6-38.4s38.4-55.466667 38.4-89.6v-128c0-64-46.933333-119.466667-110.933333-128z m25.6 128v128c0 12.8-4.266667 21.333333-12.8 29.866666s-17.066667 12.8-34.133333 12.8c-123.733333-12.8-243.2-55.466667-349.866667-123.733333C401.066667 708.266667 320 622.933333 256 524.8c-68.266667-106.666667-110.933333-226.133333-123.733333-349.866667 0-12.8 4.266667-21.333333 8.533333-29.866666 8.533333-8.533333 21.333333-17.066667 34.133333-17.066667h128c21.333333 0 38.4 17.066667 42.666667 38.4 4.266667 42.666667 17.066667 89.6 34.133333 128 4.266667 17.066667 0 34.133333-8.533333 46.933333l-55.466667 51.2c-12.8 12.8-17.066667 34.133333-8.533333 51.2 64 115.2 157.866667 209.066667 273.066667 273.066667 17.066667 8.533333 38.4 8.533333 51.2-8.533333l55.466666-55.466667c12.8-12.8 29.866667-17.066667 46.933334-8.533333 42.666667 17.066667 85.333333 25.6 128 34.133333 17.066667 4.266667 34.133333 21.333333 34.133333 42.666667z" p-id="811"></path></svg>