<?xml version="1.0" standalone="no"?><!DOCTYPE svg PUBLIC "-//W3C//DTD SVG 1.1//EN" "http://www.w3.org/Graphics/SVG/1.1/DTD/svg11.dtd"><svg t="1587058800023" class="icon" viewBox="0 0 1024 1024" version="1.1" xmlns="http://www.w3.org/2000/svg" p-id="1019" xmlns:xlink="http://www.w3.org/1999/xlink" width="200" height="200"><defs><style type="text/css"></style></defs><path d="M167.837 943.059c-71.239 0-129.171-57.931-129.171-129.171V246.709c0-71.239 57.931-129.171 129.171-129.171h708.876c71.239 0 129.171 57.931 129.171 129.171v567.179c0 71.239-57.931 129.171-129.171 129.171H167.837z m0-756.237c-32.88 0-59.888 26.813-59.888 59.888v567.179c0 32.88 26.813 59.888 59.888 59.888h708.876c32.88 0 59.888-26.813 59.888-59.888V246.71c0-32.88-26.813-59.888-59.888-59.888H167.837z m661.709 543.497c-19.18 0-34.641-15.657-34.641-34.641 0-59.105-47.95-107.056-107.056-107.056s-107.056 47.95-107.056 107.056c0 19.18-15.657 34.641-34.641 34.641-19.18 0-34.641-15.657-34.641-34.641 0-60.475 31.118-116.254 82.396-148.547-22.508-23.877-35.034-55.191-35.034-87.875 0-71.239 57.931-129.171 129.171-129.171s129.171 57.931 129.171 129.171c0 32.684-12.721 63.803-35.034 87.875 51.082 32.292 82.396 87.875 82.396 148.547-0.195 18.983-15.853 34.641-35.034 34.641zM687.85 399.563c-32.88 0-59.888 26.813-59.888 59.888s26.813 59.888 59.888 59.888 59.888-26.813 59.888-59.888-27.009-59.888-59.888-59.888z" fill="" p-id="1020"></path><path d="M423.831 400.346H211.874c-20.158 0-36.403-16.244-36.403-36.403 0-20.158 16.244-36.403 36.403-36.403h211.957c20.158 0 36.403 16.244 36.403 36.403s-16.244 36.403-36.403 36.403zM423.831 566.507H211.874c-20.158 0-36.403-16.244-36.403-36.403s16.244-36.403 36.403-36.403h211.957c20.158 0 36.403 16.244 36.403 36.403s-16.244 36.403-36.403 36.403zM423.831 730.907H211.874c-20.158 0-36.403-16.244-36.403-36.403s16.244-36.403 36.403-36.403h211.957c20.158 0 36.403 16.244 36.403 36.403s-16.244 36.403-36.403 36.403z" fill="" p-id="1021"></path></svg>