<?xml version="1.0" standalone="no"?><!DOCTYPE svg PUBLIC "-//W3C//DTD SVG 1.1//EN" "http://www.w3.org/Graphics/SVG/1.1/DTD/svg11.dtd"><svg t="1588860216018" class="icon" viewBox="0 0 1024 1024" version="1.1" xmlns="http://www.w3.org/2000/svg" p-id="5085" xmlns:xlink="http://www.w3.org/1999/xlink" width="200" height="200"><defs><style type="text/css"></style></defs><path d="M623.284037 456.493825c30.645974 0 55.642275-24.833595 55.642275-55.588039 0-30.701233-24.996301-55.588039-55.642275-55.588039s-55.533804 24.886807-55.533804 55.588039C567.750233 431.66023 592.638063 456.493825 623.284037 456.493825z" p-id="5086"></path><path d="M790.210861 178.172959 624.044354 178.172959 624.044354 122.584919c0-30.645974-24.995277-55.587016-55.533804-55.587016l-112.154359 0c-30.645974 0-55.642275 24.941042-55.642275 55.587016l0 55.588039L233.678622 178.172959c-30.645974 0-55.533804 24.886807-55.533804 55.587016l0 386.780067c0 30.645974 24.886807 58.250682 55.533804 58.250682l167.035294 0 0 55.642275 0 0L234.656903 734.432998c-30.645974 0-55.533804 24.941042-55.533804 55.587016l0 111.448278c0 30.591739 24.886807 55.533804 55.533804 55.533804l554.574654 0c30.646997 0 55.534827-24.942065 55.534827-55.533804l0-111.448278c0-30.645974-24.886807-55.587016-55.534827-55.587016L624.044354 734.432998l0-0.055259 0-55.587016L790.210861 678.790724c30.645974 0 55.642275-27.604708 55.642275-58.250682L845.853136 233.760998C845.853136 203.060789 820.856835 178.172959 790.210861 178.172959zM456.357214 122.640178c0-0.055259 0-0.055259 0.10847-0.055259l111.936395 0c0 0 0 0 0.10847 0.055259l0 55.533804-112.154359 0L456.356191 122.640178zM789.23258 790.021038l0 0.055259 0 111.338784 0 0.055259L234.766396 901.470339c-0.10847 0-0.10847-0.055259-0.10847-0.055259L234.657926 790.021038c0 0 0 0 0.10847 0l165.948543 0c30.755468 0 55.642275-24.941042 55.642275-55.587016l0-55.642275c0 0 0 0 0.10847 0l111.936395 0c0 0 0 0 0.10847 0l0 55.642275c0 30.645974 24.886807 55.587016 55.533804 55.587016L789.23258 790.021038zM790.210861 233.760998l0 389.388475-221.699288 0-112.154359 0-222.569098 0-0.10847 0 0-389.388475 0.10847 0L790.210861 233.760998 790.210861 233.760998z" p-id="5087"></path><path d="M400.605446 456.493825c30.646997 0 55.642275-24.833595 55.642275-55.588039 0-30.701233-24.995277-55.588039-55.642275-55.588039-30.645974 0-55.533804 24.886807-55.533804 55.588039C345.072665 431.66023 369.959471 456.493825 400.605446 456.493825z" p-id="5088"></path><path d="M94.573447 345.371982c-15.322987 0-27.712155 12.497639-27.712155 27.821649l0 111.284549c0 15.322987 12.389168 27.821649 27.712155 27.821649 15.432481 0 27.821649-12.498662 27.821649-27.821649l0-111.284549C122.394073 357.86962 110.005928 345.371982 94.573447 345.371982z" p-id="5089"></path><path d="M929.316036 345.371982c-15.32401 0-27.712155 12.497639-27.712155 27.821649l0 111.284549c0 15.322987 12.388145 27.821649 27.712155 27.821649 15.432481 0 27.821649-12.498662 27.821649-27.821649l0-111.284549C957.137685 357.86962 944.748517 345.371982 929.316036 345.371982z" p-id="5090"></path></svg>