<?xml version="1.0" standalone="no"?><!DOCTYPE svg PUBLIC "-//W3C//DTD SVG 1.1//EN" "http://www.w3.org/Graphics/SVG/1.1/DTD/svg11.dtd"><svg t="1588860271462" class="icon" viewBox="0 0 1024 1024" version="1.1" xmlns="http://www.w3.org/2000/svg" p-id="5243" xmlns:xlink="http://www.w3.org/1999/xlink" width="200" height="200"><defs><style type="text/css"></style></defs><path d="M497.751484 594.471316c49.601698-49.495274 99.123578-99.075483 148.674111-148.622946 5.293563-5.293563 8.061606-11.648294 8.211009-20.060895-0.582261-10.311857-5.589298-18.826787-15.993253-23.277146-10.334369-4.425799-20.23281-2.830465-28.494984 4.927219-8.664334 8.137331-16.905018 16.72901-25.313525 25.137517-41.401945 41.394782-82.82538 82.771145-124.184347 124.20993-11.32186 11.344373-11.70253 27.516704-1.153266 38.272675C470.037283 605.801363 486.506373 605.691869 497.751484 594.471316z" p-id="5244"></path><path d="M536.261567 331.068208c12.281721-15.08558 4.813632-37.579897-14.057157-42.313711-10.908444-2.734274-19.565615 1.208525-27.212782 8.873088-48.470945 48.566112-97.018637 97.055476-145.519258 145.592936-1.804089 1.804089-3.638877 3.653203-5.062296 5.749958-5.809309 8.577353-6.644327 17.692964-1.991354 27.001981 4.773723 9.55768 12.9438 14.020318 22.985504 14.722306 8.506744-0.237407 15.08865-3.532453 20.802792-9.260921 48.855708-48.961108 97.788164-97.846492 146.690944-146.756435C534.059412 333.516979 535.225981 332.342224 536.261567 331.068208z" p-id="5245"></path><path d="M888.940978 313.02118c-16.004509-16.08842-32.077579-32.107255-48.133254-48.145533-18.673292-18.650779-40.24254-22.146393-64.318888-11.662621-8.218172 3.576455-17.416671 6.439666-26.275433 6.765077-49.554626 1.819438-82.332147-48.698119-61.426001-93.888344 11.233855-24.285103 7.438413-45.776579-11.450796-64.691371-15.909341-15.927761-31.804357-31.866778-47.756677-47.749514-33.271778-33.129538-81.962733-33.184797-115.230418 0.061398C377.909026 190.069917 241.501286 326.46333 105.148805 462.906885c-32.93511 32.957623-32.831756 81.863473-0.00307 114.875331 16.004509 16.092513 32.078603 32.111349 48.137347 48.145533 18.647709 18.622126 40.007179 22.187325 64.306608 11.769045 4.425799-1.898233 9.04091-3.311419 13.691837-4.536316 9.31004-2.451842 17.645892-1.985214 19.09694-1.859347 2.233877 0.193405 4.467755 0.421602 6.66991 0.856507 43.25413 8.566096 65.891709 52.629661 47.716768 92.740194-10.861372 23.969924-6.944156 45.530986 11.695367 64.200184 16.162098 16.190751 32.301683 32.404014 48.53746 48.52211 32.791847 32.55751 81.69872 32.601512 114.453728-0.127913 82.290191-82.229816 164.555823-164.484192 246.809175-246.749824 0.639566-0.534166 1.26276-1.095961 1.863441-1.696642 10.610662-10.610662 10.80509-27.621081 0.432859-37.992289-10.146081-10.146081-26.640754-10.174734-37.299511-0.251733-0.168846 0.167822-0.336668 0.336668-0.50449 0.50449-0.062422 0.061398-0.12689 0.11768-0.188288 0.179079-0.062422 0.061398-0.118704 0.12689-0.179079 0.188288-10.95347 10.952446-21.903869 21.905916-32.856315 32.858362-71.178109 71.178109-142.352125 142.352125-213.533304 213.526141-14.811334 14.807241-28.898167 14.778588-43.763736-0.076748-15.015995-15.004739-29.951149-30.098505-45.110407-44.956911-2.701528-2.64627-2.947122-4.623297-1.450025-8.002254 32.298614-72.938196-14.151301-155.808602-93.039-166.025291-21.920242-2.836605-43.060725 0.322341-63.139016 9.608845-3.624551 1.677199-5.706979 1.131777-8.43102-1.64343-15.129582-15.407921-30.500665-30.581506-45.73974-45.883003-13.20372-13.254885-13.222139-28.249391-0.036839-41.434691C279.286868 363.629811 415.295518 227.625254 551.314401 91.62786c13.175067-13.175067 28.183899-13.134135 41.438785 0.076748 15.294334 15.243169 30.475082 30.602995 45.890166 45.729507 2.683109 2.635013 2.979868 4.612041 1.464351 8.005324-31.997762 71.65804 10.715039 152.284335 87.99103 166.087713 6.458085 1.153266 13.075807 1.373277 19.621896 2.028193 17.355273-0.190335 33.776268-4.103458 49.392944-11.413957 3.14462-1.467421 5.084808-1.167592 7.559163 1.347694 15.275915 15.520485 30.749328 30.851659 46.131667 46.266743 13.1853 13.219069 13.226233 28.256554 0.058328 41.431621-8.30106 8.305153-16.607236 16.607236-24.909319 24.911366-0.01228 0.011256-0.024559 0.022513-0.035816 0.033769-0.01228 0.011256-0.022513 0.024559-0.033769 0.035816-0.101307 0.100284-0.201591 0.201591-0.294712 0.309038-10.278087 10.631128-10.365068 27.38572-0.104377 37.647435 10.372232 10.372232 27.381627 10.177803 37.992289-0.432859 0.695848-0.695848 1.343601-1.420349 1.949398-2.166339 7.870248-7.874341 15.743566-15.746636 23.612791-23.622C921.93237 394.986983 921.777851 346.037131 888.940978 313.02118z" p-id="5246"></path></svg>