<?xml version="1.0" standalone="no"?><!DOCTYPE svg PUBLIC "-//W3C//DTD SVG 1.1//EN" "http://www.w3.org/Graphics/SVG/1.1/DTD/svg11.dtd"><svg t="1587206020463" class="icon" viewBox="0 0 1024 1024" version="1.1" xmlns="http://www.w3.org/2000/svg" p-id="2678" xmlns:xlink="http://www.w3.org/1999/xlink" width="200" height="200"><defs><style type="text/css"></style></defs><path d="M196.2118 723.959459c0 34.828226 28.334325 63.163575 63.162552 63.163575s63.162552-28.334325 63.162552-63.163575c0-34.827203-28.334325-63.162552-63.162552-63.162552S196.2118 689.132256 196.2118 723.959459zM286.886963 723.959459c0 15.170514-12.343119 27.513634-27.513634 27.513634s-27.513634-12.343119-27.513634-27.513634 12.343119-27.51261 27.513634-27.51261S286.886963 708.788945 286.886963 723.959459z" p-id="2679"></path><path d="M738.279606 787.123035c34.830273 0 63.167668-28.334325 63.167668-63.163575 0-34.827203-28.336372-63.162552-63.167668-63.162552-34.828226 0-63.163575 28.334325-63.163575 63.162552C675.116031 758.787686 703.45138 787.123035 738.279606 787.123035zM738.279606 696.446849c15.173584 0 27.517727 12.342096 27.517727 27.51261s-12.343119 27.513634-27.517727 27.513634c-15.170514 0-27.513634-12.343119-27.513634-27.513634S723.109092 696.446849 738.279606 696.446849z" p-id="2680"></path><path d="M889.511983 931.327344l-83.314521-85.73157c46.430472-28.823466 75.312266-79.71146 75.312266-135.625934L881.509728 207.263507c0-88.044242-71.630411-159.672606-159.676699-159.672606L279.899828 47.590901c-88.044242 0-159.673629 71.629387-159.673629 159.672606l0 502.706333c0 59.699684 32.939203 111.842251 81.591273 139.234111l-75.326593 77.979002c-6.839779 7.080256-6.644327 18.364253 0.435928 25.204032 3.459798 3.343141 7.92346 5.004991 12.382005 5.004991 4.665253 0 9.325389-1.820462 12.822027-5.440919l85.10633-88.103594c13.586436 3.770883 27.891234 5.796006 42.662659 5.796006l350.730013 0c3.413749 0.110517 58.755172 2.269693 92.601025 24.480554 8.231475 5.39794 19.281135 3.105734 24.682146-5.123694 5.399987-8.230452 3.106758-19.281135-5.123694-24.682146-43.383066-28.466332-108.739587-30.257118-111.500467-30.319539-0.134053-0.00307-0.268106-0.005117-0.402159-0.005117L279.899828 833.993528c-68.387553 0-124.024711-55.636135-124.024711-124.023688L155.875117 207.263507c0-68.387553 55.637158-124.023688 124.024711-124.023688l441.933201 0c68.388577 0 124.026758 55.636135 124.026758 124.023688l0 502.706333c0 50.109258-29.854958 95.018074-76.058257 114.413819-5.433756 2.28095-9.388834 7.099698-10.565636 12.875239-1.176802 5.774517 0.575098 11.756765 4.681626 15.98302l100.028181 102.931301c3.495614 3.595898 8.137331 5.402033 12.785188 5.402033 4.475941 0 8.956999-1.676176 12.420891-5.04183C896.210545 949.672154 896.372228 938.388157 889.511983 931.327344z" p-id="2681"></path><path d="M812.388465 539.737738 812.388465 215.815277c0-52.803623-42.958394-95.762017-95.762017-95.762017L285.542338 120.05326c-52.803623 0-95.762017 42.958394-95.762017 95.762017l0 323.921437c0 52.803623 42.958394 95.762017 95.762017 95.762017l431.084109 0C769.429047 635.499755 812.388465 592.540338 812.388465 539.737738zM225.429239 539.737738 225.429239 215.815277c0-33.145911 26.967188-60.113099 60.113099-60.113099l431.084109 0c33.146934 0 60.112076 26.967188 60.112076 60.113099l0 323.921437c0 33.146934-26.966165 60.112076-60.112076 60.112076L285.542338 599.848791C252.396427 599.849814 225.429239 572.883649 225.429239 539.737738z" p-id="2682"></path></svg>